<svg id="logo2" xmlns="http://www.w3.org/2000/svg" width="51.76" height="51.76" viewBox="0 0 51.76 51.76">
  <path id="패스_622" data-name="패스 622" d="M56.316,43.034a8.687,8.687,0,0,0-1.688-1.825,9.974,9.974,0,0,0-4.02-1.942,9.86,9.86,0,0,0-1.957-.25H37.2a1.513,1.513,0,0,1-1.213-.405,1.832,1.832,0,0,1-.413-1.314A1.893,1.893,0,0,1,36,35.958a1.465,1.465,0,0,1,1.2-.417H55.407V27.86H37.2a10.24,10.24,0,0,0-2.99.487,8.964,8.964,0,0,0-5.372,4.562A9.522,9.522,0,0,0,27.89,37.3a9.562,9.562,0,0,0,.94,4.39,8.864,8.864,0,0,0,2.343,2.936A9.123,9.123,0,0,0,34.2,46.239a10.24,10.24,0,0,0,2.99.487H48.577a1.937,1.937,0,0,1,.733.129,1.3,1.3,0,0,1,.468.312,1.5,1.5,0,0,1,.316.53,2.335,2.335,0,0,1,.125.788,1.83,1.83,0,0,1-.417,1.31,1.5,1.5,0,0,1-1.224.409H28.12v7.681H48.577a9.746,9.746,0,0,0,1.984-.218A9.915,9.915,0,0,0,54.585,55.8a7.9,7.9,0,0,0,1.723-1.836,9.275,9.275,0,0,0,1.154-2.421,10.1,10.1,0,0,0,.437-3.049,10.238,10.238,0,0,0-.425-3.033A8.775,8.775,0,0,0,56.316,43.034Z" transform="translate(-17.016 -16.998)" fill="#fff"/>
  <path id="패스_623" data-name="패스 623" d="M25.88,0A25.88,25.88,0,1,0,51.76,25.88,25.88,25.88,0,0,0,25.88,0Zm0,51.093A25.213,25.213,0,1,1,51.093,25.88,25.211,25.211,0,0,1,25.88,51.093Z" fill="#fff"/>
</svg>
